<?xml version="1.0" encoding="utf-8"?>
<!-- Generator: Adobe Illustrator 16.0.0, SVG Export Plug-In . SVG Version: 6.00 Build 0)  -->
<!DOCTYPE svg PUBLIC "-//W3C//DTD SVG 1.1//EN" "http://www.w3.org/Graphics/SVG/1.1/DTD/svg11.dtd">
<svg version="1.1" id="Layer_1" xmlns="http://www.w3.org/2000/svg" xmlns:xlink="http://www.w3.org/1999/xlink" x="0px" y="0px"
	 width="100px" height="100px" viewBox="0 0 100 100" enable-background="new 0 0 100 100" xml:space="preserve">
<g>
	<path d="M50,0.001c-27.569,0-50,22.431-50,50.001c0,27.569,22.431,49.997,50,49.997c27.57,0,50.001-22.428,50.001-49.997
		C100.001,22.432,77.57,0.001,50,0.001z M50,92.63c-23.503,0-42.632-19.124-42.632-42.628C7.368,26.495,26.497,7.37,50,7.37
		c23.504,0,42.632,19.124,42.632,42.632C92.632,73.506,73.504,92.63,50,92.63z"/>
	<path d="M55.21,49.998l14.267-14.267c1.439-1.439,1.439-3.771,0-5.21s-3.771-1.439-5.209,0L50,44.788L35.733,30.521
		c-1.439-1.439-3.771-1.439-5.21,0s-1.439,3.771,0,5.21L44.79,49.998L30.52,64.269c-1.439,1.439-1.439,3.771,0,5.211
		c0.719,0.72,1.662,1.079,2.605,1.079s1.885-0.359,2.605-1.079L50,55.209l14.271,14.271c0.719,0.72,1.661,1.079,2.604,1.079
		c0.942,0,1.886-0.359,2.604-1.079c1.439-1.439,1.439-3.771,0-5.211L55.21,49.998z"/>
</g>
</svg>
