<?xml version="1.0" encoding="utf-8"?>
<!-- Generator: Adobe Illustrator 16.0.0, SVG Export Plug-In . SVG Version: 6.00 Build 0)  -->
<!DOCTYPE svg PUBLIC "-//W3C//DTD SVG 1.1//EN" "http://www.w3.org/Graphics/SVG/1.1/DTD/svg11.dtd">
<svg version="1.1" id="Layer_1" xmlns="http://www.w3.org/2000/svg" xmlns:xlink="http://www.w3.org/1999/xlink" x="0px" y="0px"
	 width="100px" height="100px" viewBox="0 0 100 100" enable-background="new 0 0 100 100" xml:space="preserve">
<g>
	<path d="M50.002,0C22.432,0,0,22.432,0,50.002S22.432,100,50.002,100S100,77.572,100,50.002C100,22.431,77.572,0,50.002,0z
		 M50.002,92.631c-23.508,0-42.633-19.125-42.633-42.629c0-23.508,19.125-42.633,42.633-42.633
		c23.504,0,42.629,19.125,42.629,42.633C92.631,73.506,73.506,92.631,50.002,92.631z"/>
	<path d="M67.956,27.641l-22.12,36.762L31.958,51.205c-1.371-1.508-3.703-1.615-5.207-0.237c-1.504,1.371-1.608,3.699-0.237,5.203
		l16.718,16.311c0.698,0.766,1.688,1.201,2.721,1.201c0.025,0,0.054,0,0.079,0c1.062-0.021,2.062-0.504,2.746-1.316l24.805-39.976
		c1.306-1.562,1.12-3.909-0.438-5.219C71.581,25.861,69.267,26.089,67.956,27.641z"/>
</g>
</svg>
